<svg xmlns="http://www.w3.org/2000/svg" viewBox="0 0 480 320" fill="none">
  <rect width="480" height="320" rx="16" fill="#F7F3ED"/>
  <circle cx="240" cy="155" r="114" stroke="#E8DFD1"/>
  <circle cx="240" cy="155" r="97" stroke="#EBE3D8" stroke-dasharray="2 7"/>
  <g transform="rotate(-14 157 164)"><rect x="103" y="88" width="103" height="154" rx="7" fill="#FDFBF7" stroke="#C9B99B" stroke-width="1.6"/><rect x="112" y="97" width="85" height="136" rx="3" stroke="#DDD0B9"/><path d="M171 128A30 30 0 1 0 174 179A25 25 0 0 1 171 128Z" fill="#D9C79F"/><path d="M129 205H180" stroke="#CABCA2"/><circle cx="133" cy="128" r="2" fill="#B59C71"/></g>
  <g transform="rotate(14 323 164)"><rect x="272" y="88" width="103" height="154" rx="7" fill="#FDFBF7" stroke="#C9B99B" stroke-width="1.6"/><rect x="281" y="97" width="85" height="136" rx="3" stroke="#DDD0B9"/><circle cx="323" cy="155" r="19" fill="#D9C79F"/><g stroke="#BAA071" stroke-width="1.8" stroke-linecap="round"><path d="M323 122V129M323 181V188M290 155H297M349 155H356M300 132L305 137M341 173L347 179M300 178L305 173M341 137L347 132"/></g><path d="M298 205H349" stroke="#CABCA2"/></g>
  <rect x="185" y="69" width="110" height="168" rx="7" fill="#FFFEFA" stroke="#B5A07E" stroke-width="1.6"/>
  <rect x="195" y="79" width="90" height="148" rx="3" stroke="#DDCDB0"/>
  <path d="M240 111L247 137L273 144L247 151L240 177L233 151L207 144L233 137Z" fill="#BCA475"/>
  <path d="M240 121L245 139L263 144L245 149L240 167L235 149L217 144L235 139Z" stroke="#FFFCF4"/>
  <g fill="#BCAB89"><circle cx="208" cy="108" r="2"/><circle cx="271" cy="107" r="2"/><circle cx="211" cy="178" r="2"/><circle cx="271" cy="177" r="2"/></g>
  <text x="240" y="210" text-anchor="middle" fill="#8B7550" font-family="Georgia,serif" font-size="17" letter-spacing="2">THE STAR</text>
  <g fill="#8A7656" font-family="-apple-system,BlinkMacSystemFont,Segoe UI,Arial,sans-serif"><text x="32" y="37" font-size="20" letter-spacing="2">PILLARFORTUNE</text><text x="32" y="291" font-size="17" letter-spacing="1.3">QUESTION · DRAW · INTERPRET</text></g>
</svg>